<svg width="80" height="80" viewBox="0 0 80 80" fill="none" xmlns="http://www.w3.org/2000/svg">
<path opacity="0.1" d="M39.7377 13L58.6065 20.5209L20.8688 36.5611L2 28.0751L39.7377 13Z" fill="white"/>
<path opacity="0.1" fill-rule="evenodd" clip-rule="evenodd" d="M18.3857 53.8891L19.558 51.3134L39.7376 60.4977L59.9172 51.3134L61.0894 53.8891L39.7376 63.607L18.3857 53.8891Z" fill="white"/>
<path opacity="0.1" fill-rule="evenodd" clip-rule="evenodd" d="M18.3857 48.2318L19.558 45.6561L39.7376 54.8404L59.9172 45.6561L61.0894 48.2318L39.7376 57.9496L18.3857 48.2318Z" fill="white"/>
<path fill-rule="evenodd" clip-rule="evenodd" d="M39.6629 12.5618C39.7753 12.5171 39.9006 12.5172 40.0129 12.5622L77.6507 27.6373C77.8263 27.7076 77.9429 27.876 77.9469 28.0651C77.9509 28.2541 77.8416 28.4273 77.6692 28.5051L40.0314 45.4771C39.9084 45.5325 39.7676 45.5327 39.6445 45.4774L1.80694 28.5055C1.63409 28.4279 1.5244 28.2545 1.52843 28.0651C1.53245 27.8757 1.64941 27.7071 1.82541 27.637L39.6629 12.5618ZM3.20975 28.1008L39.837 44.5299L76.271 28.1008L39.837 13.5079L3.20975 28.1008Z" fill="white"/>
<path fill-rule="evenodd" clip-rule="evenodd" d="M18.716 40.8904C18.8506 40.8036 19.02 40.7909 19.1659 40.8568L39.8365 50.1866L60.3077 40.8575C60.4537 40.7909 60.6235 40.8032 60.7585 40.89C60.8934 40.9768 60.975 41.1262 60.975 41.2867V58.2586C60.975 58.4432 60.8673 58.6108 60.6995 58.6876L40.0336 68.1386C39.9096 68.1953 39.7671 68.1956 39.6428 68.1393L18.7773 58.6883C18.6086 58.6119 18.5002 58.4438 18.5002 58.2586V41.2867C18.5002 41.1265 18.5815 40.9773 18.716 40.8904ZM19.4436 42.017V57.9545L39.8365 67.1915L60.0317 57.9557V42.0199L40.033 51.1336C39.9093 51.19 39.7673 51.1903 39.6434 51.1343L19.4436 42.017Z" fill="white"/>
<path opacity="0.4" d="M74.1809 29.5061V44.8142L69.4553 47.177V31.6027L74.1809 29.5061Z" fill="white"/>
</svg>
