<svg width="195" height="53" viewBox="0 0 195 53" fill="none" xmlns="http://www.w3.org/2000/svg">
<path d="M21.8208 34V19.4545H27.6447C28.7148 19.4545 29.6073 19.6132 30.3223 19.9304C31.0372 20.2476 31.5746 20.688 31.9345 21.2514C32.2943 21.8101 32.4743 22.4541 32.4743 23.1832C32.4743 23.7514 32.3606 24.2509 32.1333 24.6818C31.9061 25.108 31.5936 25.4583 31.1958 25.733C30.8029 26.0028 30.353 26.1946 29.8464 26.3082V26.4503C30.4004 26.474 30.9189 26.6302 31.4018 26.919C31.8895 27.2079 32.2849 27.6127 32.5879 28.1335C32.8909 28.6496 33.0424 29.2652 33.0424 29.9801C33.0424 30.7519 32.8507 31.4408 32.4672 32.0469C32.0884 32.6482 31.5273 33.1241 30.7839 33.4744C30.0405 33.8248 29.1243 34 28.0353 34H21.8208ZM24.8961 31.4858H27.4032C28.2602 31.4858 28.8852 31.3224 29.2782 30.9957C29.6712 30.6643 29.8677 30.224 29.8677 29.6747C29.8677 29.2723 29.7707 28.9171 29.5765 28.6094C29.3824 28.3016 29.1054 28.0601 28.7456 27.8849C28.3904 27.7098 27.9667 27.6222 27.4743 27.6222H24.8961V31.4858ZM24.8961 25.5412H27.176C27.5974 25.5412 27.9714 25.4678 28.2981 25.321C28.6296 25.1695 28.89 24.9564 29.0794 24.6818C29.2735 24.4072 29.3706 24.0781 29.3706 23.6946C29.3706 23.169 29.1835 22.7453 28.8095 22.4233C28.4402 22.1013 27.9146 21.9403 27.2328 21.9403H24.8961V25.5412ZM37.0435 34V19.4545H40.1188V31.4645H46.3546V34H37.0435ZM59.3755 19.4545H62.4508V28.9006C62.4508 29.9612 62.1975 30.8892 61.6909 31.6847C61.189 32.4801 60.4859 33.1004 59.5815 33.5455C58.6771 33.9858 57.6236 34.206 56.421 34.206C55.2136 34.206 54.1577 33.9858 53.2534 33.5455C52.349 33.1004 51.6459 32.4801 51.144 31.6847C50.6421 30.8892 50.3912 29.9612 50.3912 28.9006V19.4545H53.4664V28.6378C53.4664 29.1918 53.5872 29.6842 53.8287 30.1151C54.0749 30.5459 54.4205 30.8845 54.8656 31.1307C55.3107 31.3769 55.8291 31.5 56.421 31.5C57.0176 31.5 57.536 31.3769 57.9764 31.1307C58.4215 30.8845 58.7647 30.5459 59.0062 30.1151C59.2524 29.6842 59.3755 29.1918 59.3755 28.6378V19.4545ZM66.981 34V19.4545H76.7821V21.9901H70.0563V25.456H76.2779V27.9915H70.0563V31.4645H76.8105V34H66.981ZM90.9313 19.4545V34H87.856V19.4545H90.9313ZM95.4615 19.4545H99.2541L103.26 29.2273H103.43L107.436 19.4545H111.229V34H108.246V24.5327H108.125L104.361 33.929H102.329L98.5652 24.4972H98.4444V34H95.4615V19.4545ZM115.762 34V19.4545H121.501C122.604 19.4545 123.544 19.6652 124.32 20.0866C125.097 20.5033 125.689 21.0833 126.096 21.8267C126.508 22.5653 126.714 23.4176 126.714 24.3835C126.714 25.3494 126.506 26.2017 126.089 26.9403C125.672 27.679 125.069 28.2543 124.278 28.6662C123.492 29.0781 122.54 29.2841 121.423 29.2841H117.765V26.8196H120.926C121.517 26.8196 122.005 26.7178 122.389 26.5142C122.777 26.3059 123.066 26.0194 123.255 25.6548C123.449 25.2855 123.546 24.8617 123.546 24.3835C123.546 23.9006 123.449 23.4792 123.255 23.1193C123.066 22.7547 122.777 22.473 122.389 22.2741C122 22.0705 121.508 21.9688 120.911 21.9688H118.838V34H115.762ZM131.539 34H128.243L133.265 19.4545H137.228L142.242 34H138.947L135.303 22.7784H135.189L131.539 34ZM131.333 28.2827H139.117V30.6832H131.333V28.2827ZM158.143 24.5469H155.032C154.975 24.1444 154.859 23.7869 154.684 23.4744C154.509 23.1572 154.284 22.8873 154.009 22.6648C153.735 22.4422 153.418 22.2718 153.058 22.1534C152.703 22.035 152.317 21.9759 151.9 21.9759C151.147 21.9759 150.491 22.1629 149.933 22.5369C149.374 22.9062 148.941 23.446 148.633 24.1562C148.325 24.8617 148.171 25.7187 148.171 26.7273C148.171 27.7642 148.325 28.6354 148.633 29.3409C148.945 30.0464 149.381 30.5791 149.94 30.9389C150.499 31.2988 151.145 31.4787 151.879 31.4787C152.291 31.4787 152.672 31.4242 153.022 31.3153C153.377 31.2064 153.692 31.0478 153.967 30.8395C154.241 30.6264 154.469 30.3684 154.649 30.0653C154.833 29.7623 154.961 29.4167 155.032 29.0284L158.143 29.0426C158.062 29.7102 157.861 30.3542 157.539 30.9744C157.222 31.59 156.794 32.1416 156.254 32.6293C155.719 33.1122 155.079 33.4957 154.336 33.7798C153.597 34.0592 152.762 34.1989 151.829 34.1989C150.532 34.1989 149.372 33.9053 148.349 33.3182C147.331 32.7311 146.526 31.8812 145.934 30.7685C145.347 29.6558 145.053 28.3087 145.053 26.7273C145.053 25.1411 145.352 23.7917 145.948 22.679C146.545 21.5663 147.355 20.7187 148.377 20.1364C149.4 19.5492 150.551 19.2557 151.829 19.2557C152.672 19.2557 153.453 19.3741 154.173 19.6108C154.897 19.8475 155.539 20.1932 156.097 20.6477C156.656 21.0975 157.111 21.6491 157.461 22.3026C157.816 22.956 158.044 23.7041 158.143 24.5469ZM161.794 21.9901V19.4545H173.74V21.9901H169.287V34H166.247V21.9901H161.794Z" fill="#0A2B59"/>
</svg>
