<svg width="25" height="24" viewBox="0 0 25 24" fill="none" xmlns="http://www.w3.org/2000/svg">
<path fill-rule="evenodd" clip-rule="evenodd" d="M3.28571 16.0714C2.83105 16.0714 2.39502 15.8908 2.07353 15.5693C1.75204 15.2478 1.57143 14.8118 1.57143 14.3571V2.78571C1.57143 2.33105 1.75204 1.89502 2.07353 1.57353C2.39502 1.25204 2.83105 1.07143 3.28571 1.07143H20C20.4546 1.07143 20.8907 1.25204 21.2122 1.57353C21.5336 1.89502 21.7143 2.33105 21.7143 2.78571V10.9767H21.0774C20.4104 10.1081 19.3995 9.59163 18.3068 9.57585C16.6381 9.55174 15.159 10.6973 14.7702 12.5029C14.5649 13.457 13.8246 14.1493 12.9447 14.3049C11.7375 14.5185 10.9055 15.2054 10.4487 16.0714H3.28571Z" fill="white"/>
<path fill-rule="evenodd" clip-rule="evenodd" d="M3.13409 2.16099C3.18334 2.14905 3.2342 2.14286 3.28571 2.14286H20C20.0514 2.14286 20.1023 2.14903 20.1515 2.16098L11.6428 8.1205L3.13409 2.16099ZM0.556006 2.22987C0.519024 2.41147 0.5 2.59762 0.5 2.78571V14.3571C0.5 15.096 0.793494 15.8045 1.31592 16.3269C1.83834 16.8494 2.54689 17.1429 3.28571 17.1429H9.5C10.0917 17.1429 10.5714 16.6632 10.5714 16.0714C10.5714 15.4797 10.0917 15 9.5 15H3.28571C3.11521 15 2.9517 14.9323 2.83114 14.8117C2.71059 14.6912 2.64286 14.5276 2.64286 14.3571V4.43311L11.0282 10.3062C11.3972 10.5646 11.8885 10.5646 12.2575 10.3062L20.6429 4.43306V10.2857C20.6429 10.8775 21.1225 11.3571 21.7143 11.3571C22.3061 11.3571 22.7857 10.8775 22.7857 10.2857V2.78571C22.7857 2.5969 22.7665 2.41008 22.7293 2.22783C22.7223 2.18587 22.7129 2.14413 22.7007 2.10286C22.5786 1.61987 22.328 1.17414 21.9697 0.815916C21.4474 0.293494 20.7389 0 20 0H3.28571C2.54689 0 1.83834 0.293494 1.31592 0.815916C0.958182 1.17365 0.70779 1.61867 0.585475 2.10091C0.572917 2.14347 0.563109 2.18655 0.556006 2.22987ZM19.6589 12.6846C19.3242 11.193 17.2108 11.2037 16.8894 12.6967L16.8537 12.8625C16.4597 14.6927 15.0195 16.0868 13.2235 16.4045C11.6874 16.6763 11.6874 18.8952 13.2235 19.1669C15.0195 19.4846 16.4597 20.8786 16.8537 22.7088L16.8894 22.8747C17.2108 24.3677 19.3242 24.3783 19.6589 22.8867L19.7021 22.6935C20.1111 20.8704 21.5528 19.4868 23.3456 19.1697C24.8849 18.8974 24.8849 16.6741 23.3456 16.4018C21.5528 16.0846 20.1111 14.701 19.7021 12.8779L19.6589 12.6846Z" fill="white"/>
</svg>
