<svg width="33" height="38" viewBox="0 0 33 38" fill="none" xmlns="http://www.w3.org/2000/svg">
<path d="M2.35713 0H22.3846L33 10.5742V35.3572C33 36.6595 31.9441 37.7144 30.6429 37.7144H2.35713C1.05594 37.7144 0 36.6595 0 35.3572V2.35713C0 1.05485 1.05607 0 2.35713 0Z" fill="#E2574C"/>
<path d="M32.9659 10.6071H24.75C23.4489 10.6071 22.3929 9.55118 22.3929 8.25V0.0235402L32.9659 10.6071Z" fill="#B53629"/>
<path d="M24.1584 17.8707C24.5533 17.8707 24.7466 17.5266 24.7466 17.193C24.7466 16.8477 24.545 16.5142 24.1584 16.5142H21.9097C21.4701 16.5142 21.225 16.8783 21.225 17.2802V22.8065C21.225 23.2992 21.5055 23.5726 21.885 23.5726C22.2621 23.5726 22.5438 23.2992 22.5438 22.8065V21.2897H23.9039C24.3259 21.2897 24.5368 20.9444 24.5368 20.6015C24.5368 20.2656 24.3259 19.932 23.9039 19.932H22.5438V17.8707H24.1584ZM16.5578 16.5142H14.9125C14.4658 16.5142 14.1487 16.8206 14.1487 17.2755V22.8113C14.1487 23.3758 14.6048 23.5526 14.9313 23.5526H16.6579C18.7015 23.5526 20.051 22.2079 20.051 20.1323C20.0499 17.9379 18.7794 16.5142 16.5578 16.5142ZM16.6368 22.1879H15.6338V17.879H16.5378C17.9062 17.879 18.5013 18.7971 18.5013 20.064C18.5013 21.2497 17.9167 22.1879 16.6368 22.1879ZM10.6096 16.5142H8.97962C8.51878 16.5142 8.26183 16.8182 8.26183 17.2802V22.8065C8.26183 23.2992 8.55646 23.5726 8.95242 23.5726C9.34839 23.5726 9.64301 23.2992 9.64301 22.8065V21.193H10.6648C11.9259 21.193 12.9666 20.2997 12.9666 18.863C12.9667 17.4571 11.9626 16.5142 10.6096 16.5142ZM10.5825 19.8967H9.64313V17.8118H10.5825C11.1624 17.8118 11.5312 18.2643 11.5312 18.8548C11.53 19.4442 11.1624 19.8967 10.5825 19.8967Z" fill="white"/>
</svg>
