<svg width="25" height="24" viewBox="0 0 25 24" fill="none" xmlns="http://www.w3.org/2000/svg">
<path fill-rule="evenodd" clip-rule="evenodd" d="M14.2143 1.28571C14.2143 0.575633 13.6387 0 12.9286 0C11.2964 0 9.68027 0.321473 8.17236 0.946068C6.66446 1.57066 5.29435 2.48614 4.14024 3.64024C2.98615 4.79434 2.07066 6.16446 1.44607 7.67236C0.821474 9.18027 0.5 10.7964 0.5 12.4286C0.5 13.1387 1.07563 13.7143 1.78571 13.7143C2.4958 13.7143 3.07144 13.1387 3.07144 12.4286C3.07144 11.1341 3.32639 9.85233 3.82176 8.6564C4.31712 7.46048 5.04319 6.37384 5.95852 5.45852C6.87384 4.54319 7.96048 3.81712 9.15641 3.32176C10.3523 2.82639 11.6341 2.57142 12.9286 2.57142C13.6387 2.57142 14.2143 1.9958 14.2143 1.28571ZM12.3733 22.8842C11.4847 23.4564 10.4269 23.7072 9.37588 23.595C8.32488 23.4827 7.34397 23.0142 6.5962 22.2671L5.94477 21.6156C5.65584 21.3235 5.49377 20.9292 5.49377 20.5185C5.49377 20.1076 5.65584 19.7135 5.94477 19.4214L8.68762 16.6956C8.97677 16.4077 9.36818 16.2461 9.7762 16.2461C10.1842 16.2461 10.5756 16.4077 10.8648 16.6956C11.1568 16.9845 11.5511 17.1467 11.9619 17.1467C12.3728 17.1467 12.767 16.9845 13.0591 16.6956L17.4305 12.3242C17.7195 12.0321 17.8815 11.6379 17.8815 11.2271C17.8815 10.8162 17.7195 10.422 17.4305 10.1299C17.1426 9.84076 16.981 9.44936 16.981 9.04134C16.981 8.63332 17.1426 8.24192 17.4305 7.95277L20.0704 5.20991C20.3626 4.92097 20.7568 4.75892 21.1676 4.75892C21.5785 4.75892 21.9728 4.92097 22.2647 5.20991L22.9162 5.86134C23.6766 6.59855 24.1612 7.57426 24.2891 8.62563C24.417 9.677 24.1806 10.7405 23.619 11.6385C20.6298 16.0764 16.8112 19.895 12.3733 22.8842ZM13.4668 4.95855C14.1769 4.95855 14.7525 5.53419 14.7525 6.24426C14.7525 6.95434 14.1769 7.52998 13.4668 7.52998C11.9892 7.52998 10.5721 8.11696 9.5272 9.1618C8.48236 10.2067 7.89537 11.6238 7.89537 13.1014C7.89537 13.8115 7.31973 14.3871 6.60965 14.3871C5.89958 14.3871 5.32394 13.8115 5.32394 13.1014C5.32394 10.9418 6.18184 8.87062 7.70892 7.34353C9.23601 5.81644 11.3072 4.95855 13.4668 4.95855Z" fill="white"/>
</svg>
