<svg width="724" height="311" viewBox="0 0 724 311" fill="none" xmlns="http://www.w3.org/2000/svg">
<path d="M37 83.3523C37 83.3523 243.151 -11.3901 396.233 1.14203C549.315 13.6741 782 128.926 782 128.926L242.973 197L37 83.3523Z" fill="#1051AB" fill-opacity="0.5"/>
<path d="M39.4848 30.5195C249.826 -50.9765 416.411 112.076 690.15 30.5194C935.535 -42.5895 770.173 288.182 733.286 357.486C729.077 365.394 720.952 370.051 711.994 370.116L51.6137 374.912C43.9547 374.968 36.7984 371.644 32.2664 365.47C-2.87637 317.591 -146.961 102.757 39.4848 30.5195Z" fill="#9AB5D9"/>
<path d="M47.4364 55.1545C235.168 -17.4168 393.936 126.718 653.542 45.0752C885.393 -27.8391 739.341 308.593 705.463 381.362C701.484 389.908 693.017 395.052 683.59 395.124L60.6876 399.898C52.3996 399.962 44.6725 395.986 40.2507 388.976C7.66175 337.311 -117.685 118.985 47.4364 55.1545Z" fill="#0A2B59" fill-opacity="0.4"/>
</svg>
